<svg xmlns="http://www.w3.org/2000/svg" width="1400" height="900" viewBox="0 0 1400 900" role="img" aria-label="InnerWarden setup flow preview">
  <defs>
    <style>
      :root {
        color-scheme: light dark;
      }
      text { font-family: 'SF Mono','JetBrains Mono','Menlo','Monaco','Consolas',monospace; }
      .bg { fill: #f6f7fb; }
      .title { fill: #111827; font-size: 72px; font-weight: 800; letter-spacing: 1px; }
      .subtitle { fill: #334155; font-size: 24px; }
      .panel { fill: #ffffff; stroke: #3b82f6; stroke-width: 2.5; rx: 16; }
      .panel-title { fill: #1d4ed8; font-size: 24px; font-weight: 700; }
      .step { fill: #0f172a; font-size: 21px; }
      .tag { fill: #10b981; font-size: 22px; font-weight: 700; }
      .meta { fill: #475569; font-size: 20px; }
      .line { stroke: #64748b; stroke-width: 2; }

      @media (prefers-color-scheme: dark) {
        .bg { fill: #0b1020; }
        .title { fill: #e5e7eb; }
        .subtitle { fill: #94a3b8; }
        .panel { fill: #111827; stroke: #60a5fa; }
        .panel-title { fill: #93c5fd; }
        .step { fill: #e2e8f0; }
        .tag { fill: #34d399; }
        .meta { fill: #94a3b8; }
        .line { stroke: #475569; }
      }
    </style>
  </defs>

  <rect class="bg" x="0" y="0" width="1400" height="900"/>

  <text class="title" x="90" y="120">INNERWARDEN</text>
  <text class="subtitle" x="90" y="162">Setup flow preview (SVG) - high contrast for light/dark</text>

  <rect class="panel" x="90" y="220" width="1220" height="140"/>
  <text class="panel-title" x="130" y="270">Installer Summary</text>
  <text class="step" x="130" y="315">Your server's immune system installer</text>
  <text class="meta" x="130" y="346">darwin arm64 | kernel 25.3.0</text>

  <line class="line" x1="200" y1="400" x2="200" y2="760"/>
  <line class="line" x1="520" y1="400" x2="520" y2="760"/>
  <line class="line" x1="840" y1="400" x2="840" y2="760"/>
  <line class="line" x1="1160" y1="400" x2="1160" y2="760"/>

  <rect class="panel" x="90" y="420" width="220" height="310"/>
  <text class="panel-title" x="120" y="470">1. Experience</text>
  <text class="step" x="120" y="515">Simple</text>
  <text class="step" x="120" y="548">Technical</text>

  <rect class="panel" x="410" y="420" width="220" height="310"/>
  <text class="panel-title" x="440" y="470">2. Protections</text>
  <text class="step" x="440" y="515">- Block IP</text>
  <text class="step" x="440" y="548">- Telegram</text>
  <text class="step" x="440" y="581">- Webhook</text>

  <rect class="panel" x="730" y="420" width="220" height="310"/>
  <text class="panel-title" x="760" y="470">3. Threshold</text>
  <text class="step" x="760" y="515">High + Critical</text>
  <text class="step" x="760" y="548">Critical only</text>

  <rect class="panel" x="1050" y="420" width="260" height="310"/>
  <text class="panel-title" x="1080" y="470">4. Apply mode</text>
  <text class="step" x="1080" y="515">Review first</text>
  <text class="step" x="1080" y="548">Apply immediately</text>
  <text class="tag" x="1080" y="620">No root in simulation</text>
  <text class="meta" x="1080" y="655">Real install asks sudo only when applying.</text>

  <text class="meta" x="90" y="820">Generated for setup planning. Use ./scripts/open-setup-preview.sh</text>
</svg>
